{
	"patcher" : 	{
		"fileversion" : 1,
		"appversion" : 		{
			"major" : 8,
			"minor" : 3,
			"revision" : 1,
			"architecture" : "x64",
			"modernui" : 1
		}
,
		"classnamespace" : "box",
		"rect" : [ 180.0, 79.0, 855.0, 774.0 ],
		"bglocked" : 0,
		"openinpresentation" : 0,
		"default_fontsize" : 12.0,
		"default_fontface" : 0,
		"default_fontname" : "Arial",
		"gridonopen" : 1,
		"gridsize" : [ 15.0, 15.0 ],
		"gridsnaponopen" : 1,
		"objectsnaponopen" : 1,
		"statusbarvisible" : 2,
		"toolbarvisible" : 1,
		"lefttoolbarpinned" : 0,
		"toptoolbarpinned" : 0,
		"righttoolbarpinned" : 0,
		"bottomtoolbarpinned" : 0,
		"toolbars_unpinned_last_save" : 0,
		"tallnewobj" : 0,
		"boxanimatetime" : 200,
		"enablehscroll" : 1,
		"enablevscroll" : 1,
		"devicewidth" : 0.0,
		"description" : "",
		"digest" : "",
		"tags" : "",
		"style" : "",
		"subpatcher_template" : "",
		"showrootpatcherontab" : 0,
		"showontab" : 0,
		"assistshowspatchername" : 0,
		"boxes" : [ 			{
				"box" : 				{
					"id" : "obj-4",
					"maxclass" : "newobj",
					"numinlets" : 0,
					"numoutlets" : 0,
					"patcher" : 					{
						"fileversion" : 1,
						"appversion" : 						{
							"major" : 8,
							"minor" : 3,
							"revision" : 1,
							"architecture" : "x64",
							"modernui" : 1
						}
,
						"classnamespace" : "box",
						"rect" : [ 0.0, 26.0, 855.0, 748.0 ],
						"bglocked" : 0,
						"openinpresentation" : 1,
						"default_fontsize" : 12.0,
						"default_fontface" : 0,
						"default_fontname" : "Arial",
						"gridonopen" : 1,
						"gridsize" : [ 15.0, 15.0 ],
						"gridsnaponopen" : 1,
						"objectsnaponopen" : 1,
						"statusbarvisible" : 2,
						"toolbarvisible" : 1,
						"lefttoolbarpinned" : 0,
						"toptoolbarpinned" : 0,
						"righttoolbarpinned" : 0,
						"bottomtoolbarpinned" : 0,
						"toolbars_unpinned_last_save" : 0,
						"tallnewobj" : 0,
						"boxanimatetime" : 200,
						"enablehscroll" : 1,
						"enablevscroll" : 1,
						"devicewidth" : 0.0,
						"description" : "",
						"digest" : "",
						"tags" : "",
						"style" : "",
						"subpatcher_template" : "",
						"showontab" : 1,
						"assistshowspatchername" : 0,
						"boxes" : [ 							{
								"box" : 								{
									"id" : "obj-67",
									"maxclass" : "message",
									"numinlets" : 2,
									"numoutlets" : 1,
									"outlettype" : [ "" ],
									"patching_rect" : [ 482.0, 377.0, 97.0, 22.0 ],
									"presentation" : 1,
									"presentation_rect" : [ 443.5, 381.0, 91.0, 22.0 ],
									"text" : "eval __name__"
								}

							}
, 							{
								"box" : 								{
									"id" : "obj-40",
									"maxclass" : "message",
									"numinlets" : 2,
									"numoutlets" : 1,
									"outlettype" : [ "" ],
									"patching_rect" : [ 557.5, 180.0, 76.0, 22.0 ],
									"presentation" : 1,
									"presentation_rect" : [ 558.5, 178.0, 60.0, 22.0 ],
									"text" : "eval x+10"
								}

							}
, 							{
								"box" : 								{
									"id" : "obj-31",
									"maxclass" : "message",
									"numinlets" : 2,
									"numoutlets" : 1,
									"outlettype" : [ "" ],
									"patching_rect" : [ 382.0, 173.0, 142.0, 22.0 ],
									"presentation" : 1,
									"presentation_rect" : [ 387.0, 178.0, 142.0, 22.0 ],
									"text" : "eval dict(a=list(range(5)))"
								}

							}
, 							{
								"box" : 								{
									"id" : "obj-60",
									"maxclass" : "message",
									"numinlets" : 2,
									"numoutlets" : 1,
									"outlettype" : [ "" ],
									"patching_rect" : [ 618.5, 662.0, 45.0, 22.0 ],
									"presentation" : 1,
									"presentation_rect" : [ 648.0, 675.0, 45.0, 22.0 ],
									"text" : "pipe 's'"
								}

							}
, 							{
								"box" : 								{
									"id" : "obj-61",
									"maxclass" : "message",
									"numinlets" : 2,
									"numoutlets" : 1,
									"outlettype" : [ "" ],
									"patching_rect" : [ 547.5, 628.0, 72.0, 22.0 ],
									"presentation" : 1,
									"presentation_rect" : [ 579.5, 646.0, 72.0, 22.0 ],
									"text" : "import math"
								}

							}
, 							{
								"box" : 								{
									"id" : "obj-62",
									"maxclass" : "message",
									"numinlets" : 2,
									"numoutlets" : 1,
									"outlettype" : [ "" ],
									"patching_rect" : [ 379.0, 628.0, 149.0, 22.0 ],
									"presentation" : 1,
									"presentation_rect" : [ 387.0, 646.0, 149.0, 22.0 ],
									"text" : "pipe 90 math.sin math.cos"
								}

							}
, 							{
								"box" : 								{
									"id" : "obj-63",
									"maxclass" : "message",
									"numinlets" : 2,
									"numoutlets" : 1,
									"outlettype" : [ "" ],
									"patching_rect" : [ 547.5, 695.0, 101.0, 22.0 ],
									"presentation" : 1,
									"presentation_rect" : [ 579.5, 703.0, 101.0, 22.0 ],
									"text" : "pipe 5 range sum"
								}

							}
, 							{
								"box" : 								{
									"id" : "obj-64",
									"maxclass" : "message",
									"numinlets" : 2,
									"numoutlets" : 1,
									"outlettype" : [ "" ],
									"patching_rect" : [ 379.0, 695.0, 143.0, 22.0 ],
									"presentation" : 1,
									"presentation_rect" : [ 387.0, 675.0, 143.0, 22.0 ],
									"text" : "pipe x range reversed list"
								}

							}
, 							{
								"box" : 								{
									"id" : "obj-65",
									"maxclass" : "message",
									"numinlets" : 2,
									"numoutlets" : 1,
									"outlettype" : [ "" ],
									"patching_rect" : [ 547.5, 662.0, 57.0, 22.0 ],
									"presentation" : 1,
									"presentation_rect" : [ 579.5, 675.0, 57.0, 22.0 ],
									"text" : "exec x=7"
								}

							}
, 							{
								"box" : 								{
									"id" : "obj-66",
									"maxclass" : "message",
									"numinlets" : 2,
									"numoutlets" : 1,
									"outlettype" : [ "" ],
									"patching_rect" : [ 379.0, 662.0, 146.0, 22.0 ],
									"presentation" : 1,
									"presentation_rect" : [ 387.0, 703.0, 146.0, 22.0 ],
									"text" : "pipe 5 range reversed list"
								}

							}
, 							{
								"box" : 								{
									"fontface" : 1,
									"id" : "obj-57",
									"maxclass" : "comment",
									"numinlets" : 1,
									"numoutlets" : 0,
									"patching_rect" : [ 277.0, 628.0, 86.0, 20.0 ],
									"presentation" : 1,
									"presentation_rect" : [ 278.0, 646.0, 86.0, 20.0 ],
									"text" : "test_pipe",
									"textjustification" : 2
								}

							}
, 							{
								"box" : 								{
									"bgcolor" : [ 0.498039215686275, 0.282352941176471, 0.282352941176471, 1.0 ],
									"id" : "obj-45",
									"maxclass" : "button",
									"numinlets" : 1,
									"numoutlets" : 1,
									"outlettype" : [ "bang" ],
									"parameter_enable" : 0,
									"patching_rect" : [ 206.0, 312.0, 24.0, 24.0 ],
									"presentation" : 1,
									"presentation_rect" : [ 224.5, 311.0, 24.0, 24.0 ]
								}

							}
, 							{
								"box" : 								{
									"bgcolor" : [ 0.235294117647059, 0.474509803921569, 0.258823529411765, 1.0 ],
									"id" : "obj-46",
									"maxclass" : "button",
									"numinlets" : 1,
									"numoutlets" : 1,
									"outlettype" : [ "bang" ],
									"parameter_enable" : 0,
									"patching_rect" : [ 246.0, 279.0, 24.0, 24.0 ],
									"presentation" : 1,
									"presentation_rect" : [ 194.5, 311.0, 24.0, 24.0 ]
								}

							}
, 							{
								"box" : 								{
									"id" : "obj-58",
									"maxclass" : "message",
									"numinlets" : 2,
									"numoutlets" : 1,
									"outlettype" : [ "" ],
									"patching_rect" : [ 213.5, 353.0, 35.0, 22.0 ],
									"presentation" : 1,
									"presentation_rect" : [ 213.5, 353.0, 35.0, 22.0 ],
									"text" : "clear"
								}

							}
, 							{
								"box" : 								{
									"fontface" : 1,
									"id" : "obj-44",
									"maxclass" : "comment",
									"numinlets" : 1,
									"numoutlets" : 0,
									"patching_rect" : [ 266.5, 527.0, 86.0, 20.0 ],
									"presentation" : 1,
									"presentation_rect" : [ 278.0, 546.0, 86.0, 20.0 ],
									"text" : "test_call",
									"textjustification" : 2
								}

							}
, 							{
								"box" : 								{
									"id" : "obj-43",
									"maxclass" : "message",
									"numinlets" : 2,
									"numoutlets" : 1,
									"outlettype" : [ "" ],
									"patching_rect" : [ 570.5, 590.0, 111.0, 22.0 ],
									"presentation" : 1,
									"presentation_rect" : [ 579.5, 603.0, 107.0, 22.0 ],
									"text" : "call api.random 10"
								}

							}
, 							{
								"box" : 								{
									"id" : "obj-42",
									"maxclass" : "message",
									"numinlets" : 2,
									"numoutlets" : 1,
									"outlettype" : [ "" ],
									"patching_rect" : [ 570.5, 560.0, 111.0, 22.0 ],
									"presentation" : 1,
									"presentation_rect" : [ 579.5, 574.0, 105.0, 22.0 ],
									"text" : "call api.echo 1 2 3"
								}

							}
, 							{
								"box" : 								{
									"id" : "obj-41",
									"maxclass" : "message",
									"numinlets" : 2,
									"numoutlets" : 1,
									"outlettype" : [ "" ],
									"patching_rect" : [ 570.5, 527.0, 163.0, 22.0 ],
									"presentation" : 1,
									"presentation_rect" : [ 579.5, 546.0, 159.0, 22.0 ],
									"text" : "call api.total 10.1 12.2 40 50"
								}

							}
, 							{
								"box" : 								{
									"id" : "obj-39",
									"maxclass" : "message",
									"numinlets" : 2,
									"numoutlets" : 1,
									"outlettype" : [ "" ],
									"patching_rect" : [ 553.5, 308.0, 34.0, 22.0 ],
									"presentation" : 1,
									"presentation_rect" : [ 567.25, 313.0, 34.0, 22.0 ],
									"text" : "scan"
								}

							}
, 							{
								"box" : 								{
									"id" : "obj-38",
									"maxclass" : "message",
									"numinlets" : 2,
									"numoutlets" : 1,
									"outlettype" : [ "" ],
									"patching_rect" : [ 379.0, 590.0, 115.0, 22.0 ],
									"presentation" : 1,
									"presentation_rect" : [ 387.0, 603.0, 115.0, 22.0 ],
									"text" : "eval api.random(10)"
								}

							}
, 							{
								"box" : 								{
									"id" : "obj-34",
									"maxclass" : "message",
									"numinlets" : 2,
									"numoutlets" : 1,
									"outlettype" : [ "" ],
									"patching_rect" : [ 379.0, 527.0, 186.0, 22.0 ],
									"presentation" : 1,
									"presentation_rect" : [ 387.0, 546.0, 186.0, 22.0 ],
									"text" : "eval \"api.total(10.1, 12.2, 40, 50)\""
								}

							}
, 							{
								"box" : 								{
									"id" : "obj-37",
									"maxclass" : "message",
									"numinlets" : 2,
									"numoutlets" : 1,
									"outlettype" : [ "" ],
									"patching_rect" : [ 379.0, 560.0, 129.0, 22.0 ],
									"presentation" : 1,
									"presentation_rect" : [ 387.0, 574.0, 129.0, 22.0 ],
									"text" : "eval \"api.echo(1, 2, 3)\""
								}

							}
, 							{
								"box" : 								{
									"id" : "obj-32",
									"maxclass" : "message",
									"numinlets" : 2,
									"numoutlets" : 1,
									"outlettype" : [ "" ],
									"patching_rect" : [ 35.0, 313.0, 29.5, 22.0 ],
									"text" : "set"
								}

							}
, 							{
								"box" : 								{
									"id" : "obj-8",
									"maxclass" : "newobj",
									"numinlets" : 1,
									"numoutlets" : 1,
									"outlettype" : [ "bang" ],
									"patching_rect" : [ 35.0, 268.0, 58.0, 22.0 ],
									"text" : "loadbang"
								}

							}
, 							{
								"box" : 								{
									"id" : "obj-33",
									"maxclass" : "comment",
									"numinlets" : 1,
									"numoutlets" : 0,
									"patching_rect" : [ 105.75, 262.5, 79.25, 20.0 ],
									"presentation" : 1,
									"presentation_rect" : [ 109.25, 262.5, 79.25, 20.0 ],
									"text" : "py object"
								}

							}
, 							{
								"box" : 								{
									"id" : "obj-21",
									"maxclass" : "message",
									"numinlets" : 2,
									"numoutlets" : 1,
									"outlettype" : [ "" ],
									"patching_rect" : [ 76.0, 353.0, 132.0, 22.0 ],
									"presentation" : 1,
									"presentation_rect" : [ 76.0, 353.0, 132.0, 22.0 ]
								}

							}
, 							{
								"box" : 								{
									"autoload" : 0,
									"file" : "",
									"id" : "obj-7",
									"maxclass" : "newobj",
									"numinlets" : 1,
									"numoutlets" : 3,
									"outlettype" : [ "", "bang", "bang" ],
									"patching_rect" : [ 189.0, 268.0, 29.5, 22.0 ],
									"presentation" : 1,
									"presentation_rect" : [ 195.0, 268.0, 40.0, 22.0 ],
									"saved_object_attributes" : 									{
										"autoload" : 0,
										"debug" : 0,
										"file" : "",
										"pythonpath" : "",
										"run_on_save" : 0
									}
,
									"text" : "py",
									"varname" : "__main__"
								}

							}
, 							{
								"box" : 								{
									"fontface" : 1,
									"id" : "obj-56",
									"maxclass" : "comment",
									"numinlets" : 1,
									"numoutlets" : 0,
									"patching_rect" : [ 277.0, 414.0, 86.0, 20.0 ],
									"presentation" : 1,
									"presentation_rect" : [ 278.0, 425.0, 86.0, 20.0 ],
									"text" : "test_misc",
									"textjustification" : 2
								}

							}
, 							{
								"box" : 								{
									"fontface" : 1,
									"id" : "obj-55",
									"maxclass" : "comment",
									"numinlets" : 1,
									"numoutlets" : 0,
									"patching_rect" : [ 277.0, 377.0, 86.0, 20.0 ],
									"presentation" : 1,
									"presentation_rect" : [ 278.0, 381.0, 86.0, 20.0 ],
									"text" : "test_meta",
									"textjustification" : 2
								}

							}
, 							{
								"box" : 								{
									"fontface" : 1,
									"id" : "obj-54",
									"maxclass" : "comment",
									"numinlets" : 1,
									"numoutlets" : 0,
									"patching_rect" : [ 277.0, 344.0, 86.0, 20.0 ],
									"presentation" : 1,
									"presentation_rect" : [ 278.0, 347.0, 86.0, 20.0 ],
									"text" : "test_load",
									"textjustification" : 2
								}

							}
, 							{
								"box" : 								{
									"fontface" : 1,
									"id" : "obj-53",
									"maxclass" : "comment",
									"numinlets" : 1,
									"numoutlets" : 0,
									"patching_rect" : [ 277.0, 308.0, 86.0, 20.0 ],
									"presentation" : 1,
									"presentation_rect" : [ 278.0, 313.0, 86.0, 20.0 ],
									"text" : "test_read",
									"textjustification" : 2
								}

							}
, 							{
								"box" : 								{
									"fontface" : 1,
									"id" : "obj-52",
									"maxclass" : "comment",
									"numinlets" : 1,
									"numoutlets" : 0,
									"patching_rect" : [ 266.5, 452.0, 86.0, 20.0 ],
									"presentation" : 1,
									"presentation_rect" : [ 278.0, 468.0, 85.5, 20.0 ],
									"text" : "test_api",
									"textjustification" : 2
								}

							}
, 							{
								"box" : 								{
									"fontface" : 1,
									"id" : "obj-51",
									"maxclass" : "comment",
									"numinlets" : 1,
									"numoutlets" : 0,
									"patching_rect" : [ 277.0, 275.0, 86.0, 20.0 ],
									"presentation" : 1,
									"presentation_rect" : [ 278.0, 283.0, 86.0, 20.0 ],
									"text" : "test_assign",
									"textjustification" : 2
								}

							}
, 							{
								"box" : 								{
									"fontface" : 1,
									"id" : "obj-50",
									"maxclass" : "comment",
									"numinlets" : 1,
									"numoutlets" : 0,
									"patching_rect" : [ 277.0, 13.0, 86.0, 20.0 ],
									"presentation" : 1,
									"presentation_rect" : [ 277.0, 13.0, 86.0, 20.0 ],
									"text" : "test_import",
									"textjustification" : 2
								}

							}
, 							{
								"box" : 								{
									"fontface" : 1,
									"id" : "obj-49",
									"maxclass" : "comment",
									"numinlets" : 1,
									"numoutlets" : 0,
									"patching_rect" : [ 271.5, 241.0, 86.0, 20.0 ],
									"presentation" : 1,
									"presentation_rect" : [ 278.0, 250.0, 86.0, 20.0 ],
									"text" : "test_execfile",
									"textjustification" : 2
								}

							}
, 							{
								"box" : 								{
									"fontface" : 1,
									"id" : "obj-48",
									"maxclass" : "comment",
									"numinlets" : 1,
									"numoutlets" : 0,
									"patching_rect" : [ 277.0, 207.0, 86.0, 20.0 ],
									"presentation" : 1,
									"presentation_rect" : [ 278.0, 212.0, 86.0, 20.0 ],
									"text" : "test_exec",
									"textjustification" : 2
								}

							}
, 							{
								"box" : 								{
									"fontface" : 1,
									"id" : "obj-47",
									"maxclass" : "comment",
									"numinlets" : 1,
									"numoutlets" : 0,
									"patching_rect" : [ 277.0, 142.0, 86.0, 20.0 ],
									"presentation" : 1,
									"presentation_rect" : [ 277.0, 79.0, 86.0, 20.0 ],
									"text" : "test_eval",
									"textjustification" : 2
								}

							}
, 							{
								"box" : 								{
									"id" : "obj-36",
									"maxclass" : "message",
									"numinlets" : 2,
									"numoutlets" : 1,
									"outlettype" : [ "" ],
									"patching_rect" : [ 560.5, 273.0, 54.0, 22.0 ],
									"presentation" : 1,
									"presentation_rect" : [ 567.25, 283.0, 54.0, 22.0 ],
									"text" : "eval bob"
								}

							}
, 							{
								"box" : 								{
									"id" : "obj-35",
									"maxclass" : "message",
									"numinlets" : 2,
									"numoutlets" : 1,
									"outlettype" : [ "" ],
									"patching_rect" : [ 382.0, 273.0, 156.0, 22.0 ],
									"presentation" : 1,
									"presentation_rect" : [ 387.0, 283.0, 156.0, 22.0 ],
									"text" : "assign bob 1 2.1 3 4.5 a b c"
								}

							}
, 							{
								"box" : 								{
									"id" : "obj-30",
									"maxclass" : "message",
									"numinlets" : 2,
									"numoutlets" : 1,
									"outlettype" : [ "" ],
									"patching_rect" : [ 570.5, 414.0, 29.5, 22.0 ],
									"presentation" : 1,
									"presentation_rect" : [ 579.5, 437.0, 29.5, 22.0 ],
									"text" : "bye"
								}

							}
, 							{
								"box" : 								{
									"id" : "obj-22",
									"maxclass" : "newobj",
									"numinlets" : 1,
									"numoutlets" : 1,
									"outlettype" : [ "" ],
									"patching_rect" : [ 570.5, 452.0, 141.0, 22.0 ],
									"presentation" : 1,
									"presentation_rect" : [ 579.5, 468.0, 141.0, 22.0 ],
									"text" : "sprintf eval api.post('%s')"
								}

							}
, 							{
								"box" : 								{
									"id" : "obj-29",
									"maxclass" : "message",
									"numinlets" : 2,
									"numoutlets" : 1,
									"outlettype" : [ "" ],
									"patching_rect" : [ 482.0, 344.0, 41.0, 22.0 ],
									"presentation" : 1,
									"presentation_rect" : [ 485.0, 347.0, 41.0, 22.0 ],
									"text" : "eval b"
								}

							}
, 							{
								"box" : 								{
									"id" : "obj-17",
									"maxclass" : "message",
									"numinlets" : 2,
									"numoutlets" : 1,
									"outlettype" : [ "" ],
									"patching_rect" : [ 382.0, 308.0, 77.0, 22.0 ],
									"presentation" : 1,
									"presentation_rect" : [ 387.0, 313.0, 77.0, 22.0 ],
									"text" : "read hello.py"
								}

							}
, 							{
								"box" : 								{
									"id" : "obj-24",
									"maxclass" : "message",
									"numinlets" : 2,
									"numoutlets" : 1,
									"outlettype" : [ "" ],
									"patching_rect" : [ 482.0, 308.0, 33.0, 22.0 ],
									"presentation" : 1,
									"presentation_rect" : [ 485.0, 313.0, 33.0, 22.0 ],
									"text" : "read"
								}

							}
, 							{
								"box" : 								{
									"id" : "obj-28",
									"maxclass" : "message",
									"numinlets" : 2,
									"numoutlets" : 1,
									"outlettype" : [ "" ],
									"patching_rect" : [ 382.0, 377.0, 38.0, 22.0 ],
									"presentation" : 1,
									"presentation_rect" : [ 387.0, 381.0, 38.0, 22.0 ],
									"text" : "count"
								}

							}
, 							{
								"box" : 								{
									"id" : "obj-27",
									"maxclass" : "message",
									"numinlets" : 2,
									"numoutlets" : 1,
									"outlettype" : [ "" ],
									"patching_rect" : [ 382.0, 344.0, 76.0, 22.0 ],
									"presentation" : 1,
									"presentation_rect" : [ 387.0, 347.0, 76.0, 22.0 ],
									"text" : "load hello.py"
								}

							}
, 							{
								"box" : 								{
									"id" : "obj-25",
									"maxclass" : "message",
									"numinlets" : 2,
									"numoutlets" : 1,
									"outlettype" : [ "" ],
									"patching_rect" : [ 379.0, 487.0, 114.0, 22.0 ],
									"presentation" : 1,
									"presentation_rect" : [ 387.0, 496.0, 114.0, 22.0 ],
									"text" : "eval api.post('hello')"
								}

							}
, 							{
								"box" : 								{
									"id" : "obj-11",
									"maxclass" : "message",
									"numinlets" : 2,
									"numoutlets" : 1,
									"outlettype" : [ "" ],
									"patching_rect" : [ 570.5, 487.0, 87.0, 22.0 ],
									"presentation" : 1,
									"presentation_rect" : [ 579.5, 496.0, 87.0, 22.0 ],
									"text" : "eval api.hello()"
								}

							}
, 							{
								"box" : 								{
									"id" : "obj-23",
									"maxclass" : "message",
									"numinlets" : 2,
									"numoutlets" : 1,
									"outlettype" : [ "" ],
									"patching_rect" : [ 465.0, 452.0, 66.0, 22.0 ],
									"presentation" : 1,
									"presentation_rect" : [ 474.0, 468.0, 66.0, 22.0 ],
									"text" : "eval api.txt"
								}

							}
, 							{
								"box" : 								{
									"id" : "obj-19",
									"maxclass" : "message",
									"numinlets" : 2,
									"numoutlets" : 1,
									"outlettype" : [ "" ],
									"patching_rect" : [ 379.0, 452.0, 61.0, 22.0 ],
									"presentation" : 1,
									"presentation_rect" : [ 387.0, 468.0, 61.0, 22.0 ],
									"text" : "import api"
								}

							}
, 							{
								"box" : 								{
									"id" : "obj-20",
									"maxclass" : "message",
									"numinlets" : 2,
									"numoutlets" : 1,
									"outlettype" : [ "" ],
									"patching_rect" : [ 376.5, 241.0, 94.0, 22.0 ],
									"presentation" : 1,
									"presentation_rect" : [ 387.0, 249.0, 94.0, 22.0 ],
									"text" : "execfile hello.py"
								}

							}
, 							{
								"box" : 								{
									"id" : "obj-18",
									"maxclass" : "message",
									"numinlets" : 2,
									"numoutlets" : 1,
									"outlettype" : [ "" ],
									"patching_rect" : [ 382.0, 207.0, 57.0, 22.0 ],
									"presentation" : 1,
									"presentation_rect" : [ 387.0, 212.0, 57.0, 22.0 ],
									"text" : "exec x=1"
								}

							}
, 							{
								"box" : 								{
									"id" : "obj-16",
									"maxclass" : "comment",
									"numinlets" : 1,
									"numoutlets" : 0,
									"patching_rect" : [ 503.0, 108.0, 128.0, 20.0 ],
									"presentation" : 1,
									"presentation_rect" : [ 505.5, 111.0, 128.0, 20.0 ],
									"text" : "> 128 (dynamic alloc.)"
								}

							}
, 							{
								"box" : 								{
									"id" : "obj-15",
									"maxclass" : "comment",
									"numinlets" : 1,
									"numoutlets" : 0,
									"patching_rect" : [ 495.5, 76.0, 113.0, 20.0 ],
									"presentation" : 1,
									"presentation_rect" : [ 505.5, 78.0, 113.0, 20.0 ],
									"text" : "< 128 (static alloc.)"
								}

							}
, 							{
								"box" : 								{
									"id" : "obj-2",
									"maxclass" : "message",
									"numinlets" : 2,
									"numoutlets" : 1,
									"outlettype" : [ "" ],
									"patching_rect" : [ 386.0, 108.0, 115.0, 22.0 ],
									"presentation" : 1,
									"presentation_rect" : [ 387.0, 111.0, 115.0, 22.0 ],
									"text" : "eval list(range(150))"
								}

							}
, 							{
								"box" : 								{
									"id" : "obj-13",
									"maxclass" : "button",
									"numinlets" : 1,
									"numoutlets" : 1,
									"outlettype" : [ "bang" ],
									"parameter_enable" : 0,
									"patching_rect" : [ 382.0, 414.0, 24.0, 24.0 ],
									"presentation" : 1,
									"presentation_rect" : [ 387.0, 425.0, 24.0, 24.0 ]
								}

							}
, 							{
								"box" : 								{
									"id" : "obj-14",
									"maxclass" : "message",
									"numinlets" : 2,
									"numoutlets" : 1,
									"outlettype" : [ "" ],
									"patching_rect" : [ 495.5, 44.0, 184.0, 22.0 ],
									"presentation" : 1,
									"presentation_rect" : [ 498.0, 41.0, 184.0, 22.0 ],
									"text" : "eval str(datetime.datetime.now())"
								}

							}
, 							{
								"box" : 								{
									"id" : "obj-12",
									"maxclass" : "message",
									"numinlets" : 2,
									"numoutlets" : 1,
									"outlettype" : [ "" ],
									"patching_rect" : [ 384.5, 44.0, 91.0, 22.0 ],
									"presentation" : 1,
									"presentation_rect" : [ 387.0, 41.0, 91.0, 22.0 ],
									"text" : "import datetime"
								}

							}
, 							{
								"box" : 								{
									"id" : "obj-1",
									"maxclass" : "message",
									"numinlets" : 2,
									"numoutlets" : 1,
									"outlettype" : [ "" ],
									"patching_rect" : [ 473.5, 13.0, 114.0, 22.0 ],
									"presentation" : 1,
									"presentation_rect" : [ 476.0, 13.0, 114.0, 22.0 ],
									"text" : "eval string.hexdigits"
								}

							}
, 							{
								"box" : 								{
									"id" : "obj-10",
									"maxclass" : "message",
									"numinlets" : 2,
									"numoutlets" : 1,
									"outlettype" : [ "" ],
									"patching_rect" : [ 553.5, 142.0, 76.0, 22.0 ],
									"presentation" : 1,
									"presentation_rect" : [ 558.5, 146.0, 76.0, 22.0 ],
									"text" : "eval str(1+1)"
								}

							}
, 							{
								"box" : 								{
									"id" : "obj-9",
									"maxclass" : "message",
									"numinlets" : 2,
									"numoutlets" : 1,
									"outlettype" : [ "" ],
									"patching_rect" : [ 384.5, 75.0, 102.0, 22.0 ],
									"presentation" : 1,
									"presentation_rect" : [ 387.0, 78.0, 113.0, 22.0 ],
									"text" : "eval list(range(2))"
								}

							}
, 							{
								"box" : 								{
									"id" : "obj-6",
									"maxclass" : "message",
									"numinlets" : 2,
									"numoutlets" : 1,
									"outlettype" : [ "" ],
									"patching_rect" : [ 382.0, 142.0, 74.0, 22.0 ],
									"presentation" : 1,
									"presentation_rect" : [ 387.0, 146.0, 74.0, 22.0 ],
									"text" : "eval 1.4+2.3"
								}

							}
, 							{
								"box" : 								{
									"id" : "obj-4",
									"maxclass" : "message",
									"numinlets" : 2,
									"numoutlets" : 1,
									"outlettype" : [ "" ],
									"patching_rect" : [ 475.5, 142.0, 54.0, 22.0 ],
									"presentation" : 1,
									"presentation_rect" : [ 480.5, 146.0, 54.0, 22.0 ],
									"text" : "eval 1+1"
								}

							}
, 							{
								"box" : 								{
									"id" : "obj-5",
									"maxclass" : "message",
									"numinlets" : 2,
									"numoutlets" : 1,
									"outlettype" : [ "" ],
									"patching_rect" : [ 597.5, 12.0, 191.0, 22.0 ],
									"presentation" : 1,
									"presentation_rect" : [ 600.0, 12.0, 191.0, 22.0 ],
									"text" : "eval list(reversed(string.hexdigits))"
								}

							}
, 							{
								"box" : 								{
									"id" : "obj-3",
									"maxclass" : "message",
									"numinlets" : 2,
									"numoutlets" : 1,
									"outlettype" : [ "" ],
									"patching_rect" : [ 384.5, 13.0, 75.0, 22.0 ],
									"presentation" : 1,
									"presentation_rect" : [ 387.0, 13.0, 75.0, 22.0 ],
									"text" : "import string"
								}

							}
 ],
						"lines" : [ 							{
								"patchline" : 								{
									"destination" : [ "obj-7", 0 ],
									"source" : [ "obj-1", 0 ]
								}

							}
, 							{
								"patchline" : 								{
									"destination" : [ "obj-7", 0 ],
									"source" : [ "obj-10", 0 ]
								}

							}
, 							{
								"patchline" : 								{
									"destination" : [ "obj-7", 0 ],
									"source" : [ "obj-11", 0 ]
								}

							}
, 							{
								"patchline" : 								{
									"destination" : [ "obj-7", 0 ],
									"source" : [ "obj-12", 0 ]
								}

							}
, 							{
								"patchline" : 								{
									"destination" : [ "obj-7", 0 ],
									"source" : [ "obj-13", 0 ]
								}

							}
, 							{
								"patchline" : 								{
									"destination" : [ "obj-7", 0 ],
									"source" : [ "obj-14", 0 ]
								}

							}
, 							{
								"patchline" : 								{
									"destination" : [ "obj-7", 0 ],
									"source" : [ "obj-17", 0 ]
								}

							}
, 							{
								"patchline" : 								{
									"destination" : [ "obj-7", 0 ],
									"source" : [ "obj-18", 0 ]
								}

							}
, 							{
								"patchline" : 								{
									"destination" : [ "obj-7", 0 ],
									"source" : [ "obj-19", 0 ]
								}

							}
, 							{
								"patchline" : 								{
									"destination" : [ "obj-7", 0 ],
									"source" : [ "obj-2", 0 ]
								}

							}
, 							{
								"patchline" : 								{
									"destination" : [ "obj-7", 0 ],
									"source" : [ "obj-20", 0 ]
								}

							}
, 							{
								"patchline" : 								{
									"destination" : [ "obj-7", 0 ],
									"source" : [ "obj-22", 0 ]
								}

							}
, 							{
								"patchline" : 								{
									"destination" : [ "obj-7", 0 ],
									"source" : [ "obj-23", 0 ]
								}

							}
, 							{
								"patchline" : 								{
									"destination" : [ "obj-7", 0 ],
									"source" : [ "obj-24", 0 ]
								}

							}
, 							{
								"patchline" : 								{
									"destination" : [ "obj-7", 0 ],
									"source" : [ "obj-25", 0 ]
								}

							}
, 							{
								"patchline" : 								{
									"destination" : [ "obj-7", 0 ],
									"source" : [ "obj-27", 0 ]
								}

							}
, 							{
								"patchline" : 								{
									"destination" : [ "obj-7", 0 ],
									"source" : [ "obj-28", 0 ]
								}

							}
, 							{
								"patchline" : 								{
									"destination" : [ "obj-7", 0 ],
									"source" : [ "obj-29", 0 ]
								}

							}
, 							{
								"patchline" : 								{
									"destination" : [ "obj-7", 0 ],
									"source" : [ "obj-3", 0 ]
								}

							}
, 							{
								"patchline" : 								{
									"destination" : [ "obj-22", 0 ],
									"source" : [ "obj-30", 0 ]
								}

							}
, 							{
								"patchline" : 								{
									"destination" : [ "obj-7", 0 ],
									"source" : [ "obj-31", 0 ]
								}

							}
, 							{
								"patchline" : 								{
									"destination" : [ "obj-21", 0 ],
									"source" : [ "obj-32", 0 ]
								}

							}
, 							{
								"patchline" : 								{
									"destination" : [ "obj-7", 0 ],
									"source" : [ "obj-34", 0 ]
								}

							}
, 							{
								"patchline" : 								{
									"destination" : [ "obj-7", 0 ],
									"source" : [ "obj-35", 0 ]
								}

							}
, 							{
								"patchline" : 								{
									"destination" : [ "obj-7", 0 ],
									"source" : [ "obj-36", 0 ]
								}

							}
, 							{
								"patchline" : 								{
									"destination" : [ "obj-7", 0 ],
									"source" : [ "obj-37", 0 ]
								}

							}
, 							{
								"patchline" : 								{
									"destination" : [ "obj-7", 0 ],
									"source" : [ "obj-38", 0 ]
								}

							}
, 							{
								"patchline" : 								{
									"destination" : [ "obj-7", 0 ],
									"source" : [ "obj-39", 0 ]
								}

							}
, 							{
								"patchline" : 								{
									"destination" : [ "obj-7", 0 ],
									"source" : [ "obj-4", 0 ]
								}

							}
, 							{
								"patchline" : 								{
									"destination" : [ "obj-7", 0 ],
									"source" : [ "obj-40", 0 ]
								}

							}
, 							{
								"patchline" : 								{
									"destination" : [ "obj-7", 0 ],
									"source" : [ "obj-41", 0 ]
								}

							}
, 							{
								"patchline" : 								{
									"destination" : [ "obj-7", 0 ],
									"source" : [ "obj-42", 0 ]
								}

							}
, 							{
								"patchline" : 								{
									"destination" : [ "obj-7", 0 ],
									"source" : [ "obj-43", 0 ]
								}

							}
, 							{
								"patchline" : 								{
									"destination" : [ "obj-7", 0 ],
									"source" : [ "obj-5", 0 ]
								}

							}
, 							{
								"patchline" : 								{
									"destination" : [ "obj-32", 0 ],
									"source" : [ "obj-58", 0 ]
								}

							}
, 							{
								"patchline" : 								{
									"destination" : [ "obj-7", 0 ],
									"source" : [ "obj-6", 0 ]
								}

							}
, 							{
								"patchline" : 								{
									"destination" : [ "obj-7", 0 ],
									"source" : [ "obj-60", 0 ]
								}

							}
, 							{
								"patchline" : 								{
									"destination" : [ "obj-7", 0 ],
									"source" : [ "obj-61", 0 ]
								}

							}
, 							{
								"patchline" : 								{
									"destination" : [ "obj-7", 0 ],
									"source" : [ "obj-62", 0 ]
								}

							}
, 							{
								"patchline" : 								{
									"destination" : [ "obj-7", 0 ],
									"source" : [ "obj-63", 0 ]
								}

							}
, 							{
								"patchline" : 								{
									"destination" : [ "obj-7", 0 ],
									"source" : [ "obj-64", 0 ]
								}

							}
, 							{
								"patchline" : 								{
									"destination" : [ "obj-7", 0 ],
									"source" : [ "obj-65", 0 ]
								}

							}
, 							{
								"patchline" : 								{
									"destination" : [ "obj-7", 0 ],
									"source" : [ "obj-66", 0 ]
								}

							}
, 							{
								"patchline" : 								{
									"destination" : [ "obj-7", 0 ],
									"source" : [ "obj-67", 0 ]
								}

							}
, 							{
								"patchline" : 								{
									"destination" : [ "obj-21", 1 ],
									"source" : [ "obj-7", 0 ]
								}

							}
, 							{
								"patchline" : 								{
									"destination" : [ "obj-45", 0 ],
									"source" : [ "obj-7", 1 ]
								}

							}
, 							{
								"patchline" : 								{
									"destination" : [ "obj-46", 0 ],
									"source" : [ "obj-7", 2 ]
								}

							}
, 							{
								"patchline" : 								{
									"destination" : [ "obj-32", 0 ],
									"hidden" : 1,
									"source" : [ "obj-8", 0 ]
								}

							}
, 							{
								"patchline" : 								{
									"destination" : [ "obj-7", 0 ],
									"source" : [ "obj-9", 0 ]
								}

							}
 ]
					}
,
					"patching_rect" : [ 102.0, 53.0, 44.0, 22.0 ],
					"saved_object_attributes" : 					{
						"description" : "",
						"digest" : "",
						"globalpatchername" : "",
						"tags" : ""
					}
,
					"text" : "p tests"
				}

			}
, 			{
				"box" : 				{
					"fontface" : 1,
					"id" : "obj-3",
					"maxclass" : "comment",
					"numinlets" : 1,
					"numoutlets" : 0,
					"patching_rect" : [ 16.0, 27.0, 160.0, 20.0 ],
					"text" : "tabs"
				}

			}
, 			{
				"box" : 				{
					"id" : "obj-75",
					"maxclass" : "newobj",
					"numinlets" : 0,
					"numoutlets" : 0,
					"patcher" : 					{
						"fileversion" : 1,
						"appversion" : 						{
							"major" : 8,
							"minor" : 3,
							"revision" : 1,
							"architecture" : "x64",
							"modernui" : 1
						}
,
						"classnamespace" : "box",
						"rect" : [ 180.0, 105.0, 855.0, 748.0 ],
						"bglocked" : 0,
						"openinpresentation" : 0,
						"default_fontsize" : 12.0,
						"default_fontface" : 0,
						"default_fontname" : "Arial",
						"gridonopen" : 1,
						"gridsize" : [ 15.0, 15.0 ],
						"gridsnaponopen" : 1,
						"objectsnaponopen" : 1,
						"statusbarvisible" : 2,
						"toolbarvisible" : 1,
						"lefttoolbarpinned" : 0,
						"toptoolbarpinned" : 0,
						"righttoolbarpinned" : 0,
						"bottomtoolbarpinned" : 0,
						"toolbars_unpinned_last_save" : 0,
						"tallnewobj" : 0,
						"boxanimatetime" : 200,
						"enablehscroll" : 1,
						"enablevscroll" : 1,
						"devicewidth" : 0.0,
						"description" : "",
						"digest" : "",
						"tags" : "",
						"style" : "",
						"subpatcher_template" : "",
						"showontab" : 1,
						"assistshowspatchername" : 0,
						"boxes" : [ 							{
								"box" : 								{
									"id" : "obj-91",
									"maxclass" : "comment",
									"numinlets" : 1,
									"numoutlets" : 0,
									"patching_rect" : [ 488.5, 414.0, 119.0, 20.0 ],
									"text" : "display external info"
								}

							}
, 							{
								"box" : 								{
									"id" : "obj-87",
									"maxclass" : "message",
									"numinlets" : 2,
									"numoutlets" : 1,
									"outlettype" : [ "" ],
									"patching_rect" : [ 455.75, 414.0, 29.5, 22.0 ],
									"text" : "info"
								}

							}
, 							{
								"box" : 								{
									"id" : "obj-100",
									"linecount" : 3,
									"maxclass" : "comment",
									"numinlets" : 1,
									"numoutlets" : 0,
									"patching_rect" : [ 478.5, 439.5, 129.0, 47.0 ],
									"text" : "api is an embedded python module that wraps the max api"
								}

							}
, 							{
								"box" : 								{
									"id" : "obj-98",
									"maxclass" : "comment",
									"numinlets" : 1,
									"numoutlets" : 0,
									"patching_rect" : [ 459.25, 377.0, 118.75, 20.0 ],
									"text" : "count = # py objects"
								}

							}
, 							{
								"box" : 								{
									"id" : "obj-97",
									"maxclass" : "comment",
									"numinlets" : 1,
									"numoutlets" : 0,
									"patching_rect" : [ 622.0, 247.0, 146.0, 20.0 ],
									"text" : "= is shorthand for assign"
								}

							}
, 							{
								"box" : 								{
									"id" : "obj-96",
									"maxclass" : "comment",
									"numinlets" : 1,
									"numoutlets" : 0,
									"patching_rect" : [ 696.0, 377.0, 135.0, 20.0 ],
									"text" : "gives name of py object"
								}

							}
, 							{
								"box" : 								{
									"id" : "obj-94",
									"linecount" : 2,
									"maxclass" : "comment",
									"numinlets" : 1,
									"numoutlets" : 0,
									"patching_rect" : [ 495.0, 340.5, 116.0, 33.0 ],
									"text" : "dbl-click on py after read or load msg"
								}

							}
, 							{
								"box" : 								{
									"id" : "obj-92",
									"maxclass" : "comment",
									"numinlets" : 1,
									"numoutlets" : 0,
									"patching_rect" : [ 13.5, 173.0, 150.0, 20.0 ],
									"text" : "py repl"
								}

							}
, 							{
								"box" : 								{
									"id" : "obj-90",
									"linecount" : 5,
									"maxclass" : "comment",
									"numinlets" : 1,
									"numoutlets" : 0,
									"patching_rect" : [ 5.0, 44.0, 280.0, 74.0 ],
									"text" : "This page introduces the features of the py object\nwhich is below. \n\nClick on the messages to the right and below the py object and on the repl subbatcher."
								}

							}
, 							{
								"box" : 								{
									"fontface" : 1,
									"fontsize" : 16.0,
									"id" : "obj-88",
									"maxclass" : "comment",
									"numinlets" : 1,
									"numoutlets" : 0,
									"patching_rect" : [ 2.5, 6.0, 283.0, 24.0 ],
									"text" : "py: minimal python3 object for max"
								}

							}
, 							{
								"box" : 								{
									"bgmode" : 0,
									"border" : 0,
									"clickthrough" : 0,
									"enablehscroll" : 0,
									"enablevscroll" : 0,
									"id" : "obj-86",
									"lockeddragscroll" : 0,
									"lockedsize" : 0,
									"maxclass" : "bpatcher",
									"name" : "py_repl.maxpat",
									"numinlets" : 2,
									"numoutlets" : 1,
									"offset" : [ 0.0, 0.0 ],
									"outlettype" : [ "" ],
									"patching_rect" : [ 13.5, 207.0, 280.0, 26.0 ],
									"viewvisibility" : 1
								}

							}
, 							{
								"box" : 								{
									"id" : "obj-80",
									"maxclass" : "comment",
									"numinlets" : 1,
									"numoutlets" : 0,
									"patching_rect" : [ 91.0, 504.0, 99.0, 20.0 ],
									"text" : "name: intobj"
								}

							}
, 							{
								"box" : 								{
									"id" : "obj-81",
									"maxclass" : "number",
									"numinlets" : 1,
									"numoutlets" : 2,
									"outlettype" : [ "", "bang" ],
									"parameter_enable" : 0,
									"patching_rect" : [ 35.0, 504.0, 50.0, 22.0 ],
									"varname" : "intobj"
								}

							}
, 							{
								"box" : 								{
									"id" : "obj-82",
									"maxclass" : "comment",
									"numinlets" : 1,
									"numoutlets" : 0,
									"patching_rect" : [ 91.0, 583.5, 83.0, 20.0 ],
									"text" : "name: mrmsg"
								}

							}
, 							{
								"box" : 								{
									"id" : "obj-83",
									"maxclass" : "message",
									"numinlets" : 2,
									"numoutlets" : 1,
									"outlettype" : [ "" ],
									"patching_rect" : [ 35.0, 583.5, 50.0, 22.0 ],
									"text" : "world",
									"varname" : "mrmsg"
								}

							}
, 							{
								"box" : 								{
									"id" : "obj-84",
									"maxclass" : "comment",
									"numinlets" : 1,
									"numoutlets" : 0,
									"patching_rect" : [ 91.0, 530.0, 99.0, 20.0 ],
									"text" : "name: kangaroo"
								}

							}
, 							{
								"box" : 								{
									"id" : "obj-85",
									"maxclass" : "button",
									"numinlets" : 1,
									"numoutlets" : 1,
									"outlettype" : [ "bang" ],
									"parameter_enable" : 0,
									"patching_rect" : [ 35.0, 530.0, 50.0, 50.0 ],
									"varname" : "kangaroo"
								}

							}
, 							{
								"box" : 								{
									"id" : "obj-72",
									"maxclass" : "message",
									"numinlets" : 2,
									"numoutlets" : 1,
									"outlettype" : [ "" ],
									"patching_rect" : [ 35.0, 654.0, 107.0, 22.0 ],
									"text" : "send bob eval 1+1"
								}

							}
, 							{
								"box" : 								{
									"id" : "obj-73",
									"maxclass" : "message",
									"numinlets" : 2,
									"numoutlets" : 1,
									"outlettype" : [ "" ],
									"patching_rect" : [ 161.0, 654.0, 88.0, 22.0 ],
									"text" : "send bob 1+20"
								}

							}
, 							{
								"box" : 								{
									"id" : "obj-74",
									"maxclass" : "message",
									"numinlets" : 2,
									"numoutlets" : 1,
									"outlettype" : [ "" ],
									"patching_rect" : [ 204.0, 681.0, 126.0, 22.0 ],
									"text" : "send mrmsg set world"
								}

							}
, 							{
								"box" : 								{
									"id" : "obj-76",
									"maxclass" : "message",
									"numinlets" : 2,
									"numoutlets" : 1,
									"outlettype" : [ "" ],
									"patching_rect" : [ 35.0, 708.0, 90.0, 22.0 ],
									"text" : "send intobj 101"
								}

							}
, 							{
								"box" : 								{
									"id" : "obj-77",
									"maxclass" : "message",
									"numinlets" : 2,
									"numoutlets" : 1,
									"outlettype" : [ "" ],
									"patching_rect" : [ 161.0, 708.0, 147.0, 22.0 ],
									"text" : "send mrmsg append hello"
								}

							}
, 							{
								"box" : 								{
									"id" : "obj-78",
									"maxclass" : "message",
									"numinlets" : 2,
									"numoutlets" : 1,
									"outlettype" : [ "" ],
									"patching_rect" : [ 35.0, 681.0, 118.0, 22.0 ],
									"text" : "send kangaroo bang"
								}

							}
, 							{
								"box" : 								{
									"id" : "obj-79",
									"maxclass" : "message",
									"numinlets" : 2,
									"numoutlets" : 1,
									"outlettype" : [ "" ],
									"patching_rect" : [ 161.0, 681.0, 34.0, 22.0 ],
									"text" : "scan"
								}

							}
, 							{
								"box" : 								{
									"fontface" : 1,
									"id" : "obj-71",
									"maxclass" : "comment",
									"numinlets" : 1,
									"numoutlets" : 0,
									"patching_rect" : [ 35.0, 628.0, 67.0, 20.0 ],
									"presentation" : 1,
									"presentation_rect" : [ 199.0, 631.0, 86.0, 20.0 ],
									"text" : "test_send",
									"textjustification" : 2
								}

							}
, 							{
								"box" : 								{
									"id" : "obj-70",
									"maxclass" : "message",
									"numinlets" : 2,
									"numoutlets" : 1,
									"outlettype" : [ "" ],
									"patching_rect" : [ 455.75, 207.0, 29.5, 22.0 ],
									"presentation" : 1,
									"presentation_rect" : [ 423.0, 209.0, 57.0, 22.0 ],
									"text" : "x"
								}

							}
, 							{
								"box" : 								{
									"id" : "obj-69",
									"maxclass" : "message",
									"numinlets" : 2,
									"numoutlets" : 1,
									"outlettype" : [ "" ],
									"patching_rect" : [ 751.0, 273.0, 67.0, 22.0 ],
									"presentation" : 1,
									"presentation_rect" : [ 551.5, 311.0, 75.0, 22.0 ],
									"text" : "= xs happy"
								}

							}
, 							{
								"box" : 								{
									"id" : "obj-68",
									"maxclass" : "message",
									"numinlets" : 2,
									"numoutlets" : 1,
									"outlettype" : [ "" ],
									"patching_rect" : [ 622.0, 273.0, 120.0, 22.0 ],
									"presentation" : 1,
									"presentation_rect" : [ 551.5, 283.0, 128.0, 22.0 ],
									"text" : "= xs 1 2.1 3 4.5 a b c"
								}

							}
, 							{
								"box" : 								{
									"id" : "obj-59",
									"maxclass" : "message",
									"numinlets" : 2,
									"numoutlets" : 1,
									"outlettype" : [ "" ],
									"patching_rect" : [ 696.0, 76.0, 94.0, 22.0 ],
									"presentation" : 1,
									"presentation_rect" : [ 652.0, 79.0, 47.0, 22.0 ],
									"text" : "version"
								}

							}
, 							{
								"box" : 								{
									"id" : "obj-26",
									"maxclass" : "message",
									"numinlets" : 2,
									"numoutlets" : 1,
									"outlettype" : [ "" ],
									"patching_rect" : [ 696.0, 44.0, 135.0, 22.0 ],
									"presentation" : 1,
									"presentation_rect" : [ 652.0, 41.0, 135.0, 22.0 ],
									"text" : "from sys import version"
								}

							}
, 							{
								"box" : 								{
									"id" : "obj-67",
									"maxclass" : "message",
									"numinlets" : 2,
									"numoutlets" : 1,
									"outlettype" : [ "" ],
									"patching_rect" : [ 622.0, 377.0, 65.0, 22.0 ],
									"presentation" : 1,
									"presentation_rect" : [ 445.5, 407.0, 69.0, 22.0 ],
									"text" : "__name__"
								}

							}
, 							{
								"box" : 								{
									"id" : "obj-40",
									"maxclass" : "message",
									"numinlets" : 2,
									"numoutlets" : 1,
									"outlettype" : [ "" ],
									"patching_rect" : [ 622.0, 173.0, 35.0, 22.0 ],
									"presentation" : 1,
									"presentation_rect" : [ 558.5, 178.0, 60.0, 22.0 ],
									"text" : "x+10"
								}

							}
, 							{
								"box" : 								{
									"id" : "obj-31",
									"maxclass" : "message",
									"numinlets" : 2,
									"numoutlets" : 1,
									"outlettype" : [ "" ],
									"patching_rect" : [ 412.0, 173.0, 117.0, 22.0 ],
									"presentation" : 1,
									"presentation_rect" : [ 387.0, 178.0, 142.0, 22.0 ],
									"text" : "dict(a=list(range(5)))"
								}

							}
, 							{
								"box" : 								{
									"id" : "obj-60",
									"maxclass" : "message",
									"numinlets" : 2,
									"numoutlets" : 1,
									"outlettype" : [ "" ],
									"patching_rect" : [ 622.0, 662.0, 45.0, 22.0 ],
									"presentation" : 1,
									"presentation_rect" : [ 648.0, 705.0, 45.0, 22.0 ],
									"text" : "pipe 's'"
								}

							}
, 							{
								"box" : 								{
									"id" : "obj-61",
									"maxclass" : "message",
									"numinlets" : 2,
									"numoutlets" : 1,
									"outlettype" : [ "" ],
									"patching_rect" : [ 622.0, 628.0, 72.0, 22.0 ],
									"presentation" : 1,
									"presentation_rect" : [ 579.5, 669.0, 72.0, 22.0 ],
									"text" : "import math"
								}

							}
, 							{
								"box" : 								{
									"id" : "obj-62",
									"maxclass" : "message",
									"numinlets" : 2,
									"numoutlets" : 1,
									"outlettype" : [ "" ],
									"patching_rect" : [ 409.0, 628.0, 149.0, 22.0 ],
									"presentation" : 1,
									"presentation_rect" : [ 387.0, 669.0, 149.0, 22.0 ],
									"text" : "pipe 90 math.sin math.cos"
								}

							}
, 							{
								"box" : 								{
									"id" : "obj-63",
									"maxclass" : "message",
									"numinlets" : 2,
									"numoutlets" : 1,
									"outlettype" : [ "" ],
									"patching_rect" : [ 622.0, 695.0, 101.0, 22.0 ],
									"presentation" : 1,
									"presentation_rect" : [ 579.5, 742.0, 101.0, 22.0 ],
									"text" : "pipe 5 range sum"
								}

							}
, 							{
								"box" : 								{
									"id" : "obj-64",
									"maxclass" : "message",
									"numinlets" : 2,
									"numoutlets" : 1,
									"outlettype" : [ "" ],
									"patching_rect" : [ 409.0, 695.0, 143.0, 22.0 ],
									"presentation" : 1,
									"presentation_rect" : [ 387.0, 705.0, 143.0, 22.0 ],
									"text" : "pipe x range reversed list"
								}

							}
, 							{
								"box" : 								{
									"id" : "obj-65",
									"maxclass" : "message",
									"numinlets" : 2,
									"numoutlets" : 1,
									"outlettype" : [ "" ],
									"patching_rect" : [ 563.0, 695.0, 29.5, 22.0 ],
									"presentation" : 1,
									"presentation_rect" : [ 579.5, 705.0, 57.0, 22.0 ],
									"text" : "x=7"
								}

							}
, 							{
								"box" : 								{
									"id" : "obj-66",
									"maxclass" : "message",
									"numinlets" : 2,
									"numoutlets" : 1,
									"outlettype" : [ "" ],
									"patching_rect" : [ 409.0, 662.0, 146.0, 22.0 ],
									"presentation" : 1,
									"presentation_rect" : [ 387.0, 742.0, 146.0, 22.0 ],
									"text" : "pipe 5 range reversed list"
								}

							}
, 							{
								"box" : 								{
									"fontface" : 1,
									"id" : "obj-57",
									"maxclass" : "comment",
									"numinlets" : 1,
									"numoutlets" : 0,
									"patching_rect" : [ 307.0, 628.0, 86.0, 20.0 ],
									"presentation" : 1,
									"presentation_rect" : [ 278.0, 669.0, 86.0, 20.0 ],
									"text" : "test_pipe",
									"textjustification" : 2
								}

							}
, 							{
								"box" : 								{
									"bgcolor" : [ 0.498039215686275, 0.282352941176471, 0.282352941176471, 1.0 ],
									"id" : "obj-45",
									"maxclass" : "button",
									"numinlets" : 1,
									"numoutlets" : 1,
									"outlettype" : [ "bang" ],
									"parameter_enable" : 0,
									"patching_rect" : [ 211.5, 312.0, 24.0, 24.0 ],
									"presentation" : 1,
									"presentation_rect" : [ 224.5, 311.0, 24.0, 24.0 ]
								}

							}
, 							{
								"box" : 								{
									"bgcolor" : [ 0.235294117647059, 0.474509803921569, 0.258823529411765, 1.0 ],
									"id" : "obj-46",
									"maxclass" : "button",
									"numinlets" : 1,
									"numoutlets" : 1,
									"outlettype" : [ "bang" ],
									"parameter_enable" : 0,
									"patching_rect" : [ 247.0, 312.0, 24.0, 24.0 ],
									"presentation" : 1,
									"presentation_rect" : [ 194.5, 311.0, 24.0, 24.0 ]
								}

							}
, 							{
								"box" : 								{
									"id" : "obj-58",
									"maxclass" : "message",
									"numinlets" : 2,
									"numoutlets" : 1,
									"outlettype" : [ "" ],
									"patching_rect" : [ 210.125, 353.0, 35.0, 22.0 ],
									"presentation" : 1,
									"presentation_rect" : [ 213.5, 353.0, 35.0, 22.0 ],
									"text" : "clear"
								}

							}
, 							{
								"box" : 								{
									"fontface" : 1,
									"id" : "obj-44",
									"maxclass" : "comment",
									"numinlets" : 1,
									"numoutlets" : 0,
									"patching_rect" : [ 307.0, 527.0, 86.0, 20.0 ],
									"presentation" : 1,
									"presentation_rect" : [ 278.0, 546.0, 86.0, 20.0 ],
									"text" : "test_call",
									"textjustification" : 2
								}

							}
, 							{
								"box" : 								{
									"id" : "obj-43",
									"maxclass" : "message",
									"numinlets" : 2,
									"numoutlets" : 1,
									"outlettype" : [ "" ],
									"patching_rect" : [ 622.0, 590.0, 111.0, 22.0 ],
									"presentation" : 1,
									"presentation_rect" : [ 579.5, 625.0, 107.0, 22.0 ],
									"text" : "call api.random 10"
								}

							}
, 							{
								"box" : 								{
									"id" : "obj-42",
									"maxclass" : "message",
									"numinlets" : 2,
									"numoutlets" : 1,
									"outlettype" : [ "" ],
									"patching_rect" : [ 622.0, 560.0, 111.0, 22.0 ],
									"presentation" : 1,
									"presentation_rect" : [ 579.5, 587.0, 105.0, 22.0 ],
									"text" : "call api.echo 1 2 3"
								}

							}
, 							{
								"box" : 								{
									"id" : "obj-41",
									"maxclass" : "message",
									"numinlets" : 2,
									"numoutlets" : 1,
									"outlettype" : [ "" ],
									"patching_rect" : [ 622.0, 527.0, 163.0, 22.0 ],
									"presentation" : 1,
									"presentation_rect" : [ 579.5, 546.0, 159.0, 22.0 ],
									"text" : "call api.total 10.1 12.2 40 50"
								}

							}
, 							{
								"box" : 								{
									"id" : "obj-39",
									"maxclass" : "message",
									"numinlets" : 2,
									"numoutlets" : 1,
									"outlettype" : [ "" ],
									"patching_rect" : [ 622.0, 308.0, 34.0, 22.0 ],
									"presentation" : 1,
									"presentation_rect" : [ 571.5, 344.0, 34.0, 22.0 ],
									"text" : "scan"
								}

							}
, 							{
								"box" : 								{
									"id" : "obj-38",
									"maxclass" : "message",
									"numinlets" : 2,
									"numoutlets" : 1,
									"outlettype" : [ "" ],
									"patching_rect" : [ 409.0, 590.0, 90.0, 22.0 ],
									"presentation" : 1,
									"presentation_rect" : [ 387.0, 625.0, 115.0, 22.0 ],
									"text" : "api.random(10)"
								}

							}
, 							{
								"box" : 								{
									"id" : "obj-34",
									"maxclass" : "message",
									"numinlets" : 2,
									"numoutlets" : 1,
									"outlettype" : [ "" ],
									"patching_rect" : [ 409.0, 527.0, 189.5, 22.0 ],
									"presentation" : 1,
									"presentation_rect" : [ 387.0, 546.0, 186.0, 22.0 ],
									"text" : "eval \"api.total(10.1, 12.2, 40, 50)\""
								}

							}
, 							{
								"box" : 								{
									"id" : "obj-37",
									"maxclass" : "message",
									"numinlets" : 2,
									"numoutlets" : 1,
									"outlettype" : [ "" ],
									"patching_rect" : [ 409.0, 560.0, 189.5, 22.0 ],
									"presentation" : 1,
									"presentation_rect" : [ 387.0, 587.0, 129.0, 22.0 ],
									"text" : "eval \"api.echo(1, 2, 3)\""
								}

							}
, 							{
								"box" : 								{
									"hidden" : 1,
									"id" : "obj-32",
									"maxclass" : "message",
									"numinlets" : 2,
									"numoutlets" : 1,
									"outlettype" : [ "" ],
									"patching_rect" : [ 35.0, 313.0, 29.5, 22.0 ],
									"text" : "set"
								}

							}
, 							{
								"box" : 								{
									"hidden" : 1,
									"id" : "obj-8",
									"maxclass" : "newobj",
									"numinlets" : 1,
									"numoutlets" : 1,
									"outlettype" : [ "bang" ],
									"patching_rect" : [ 35.0, 268.0, 58.0, 22.0 ],
									"text" : "loadbang"
								}

							}
, 							{
								"box" : 								{
									"id" : "obj-33",
									"maxclass" : "comment",
									"numinlets" : 1,
									"numoutlets" : 0,
									"patching_rect" : [ 108.75, 268.0, 59.25, 20.0 ],
									"presentation" : 1,
									"presentation_rect" : [ 109.25, 262.5, 79.25, 20.0 ],
									"text" : "py object"
								}

							}
, 							{
								"box" : 								{
									"id" : "obj-21",
									"maxclass" : "message",
									"numinlets" : 2,
									"numoutlets" : 1,
									"outlettype" : [ "" ],
									"patching_rect" : [ 35.0, 353.0, 160.0, 22.0 ],
									"presentation" : 1,
									"presentation_rect" : [ 76.0, 353.0, 132.0, 22.0 ]
								}

							}
, 							{
								"box" : 								{
									"autoload" : 0,
									"file" : "",
									"id" : "obj-7",
									"maxclass" : "newobj",
									"numinlets" : 1,
									"numoutlets" : 3,
									"outlettype" : [ "", "bang", "bang" ],
									"patching_rect" : [ 176.0, 268.0, 90.0, 22.0 ],
									"presentation" : 1,
									"presentation_linecount" : 3,
									"presentation_rect" : [ 195.0, 268.0, 54.0, 49.0 ],
									"saved_object_attributes" : 									{
										"autoload" : 0,
										"debug" : 1,
										"file" : "",
										"pythonpath" : "",
										"run_on_save" : 0
									}
,
									"text" : "py @name bob",
									"varname" : "bob"
								}

							}
, 							{
								"box" : 								{
									"fontface" : 1,
									"id" : "obj-56",
									"maxclass" : "comment",
									"numinlets" : 1,
									"numoutlets" : 0,
									"patching_rect" : [ 307.0, 414.0, 86.0, 20.0 ],
									"presentation" : 1,
									"presentation_rect" : [ 280.0, 437.0, 86.0, 20.0 ],
									"text" : "test_misc",
									"textjustification" : 2
								}

							}
, 							{
								"box" : 								{
									"fontface" : 1,
									"id" : "obj-55",
									"maxclass" : "comment",
									"numinlets" : 1,
									"numoutlets" : 0,
									"patching_rect" : [ 307.0, 377.0, 86.0, 20.0 ],
									"presentation" : 1,
									"presentation_rect" : [ 280.0, 407.0, 86.0, 20.0 ],
									"text" : "test_meta",
									"textjustification" : 2
								}

							}
, 							{
								"box" : 								{
									"fontface" : 1,
									"id" : "obj-54",
									"maxclass" : "comment",
									"numinlets" : 1,
									"numoutlets" : 0,
									"patching_rect" : [ 307.0, 344.0, 86.0, 20.0 ],
									"presentation" : 1,
									"presentation_rect" : [ 280.0, 375.0, 86.0, 20.0 ],
									"text" : "test_load",
									"textjustification" : 2
								}

							}
, 							{
								"box" : 								{
									"fontface" : 1,
									"id" : "obj-53",
									"maxclass" : "comment",
									"numinlets" : 1,
									"numoutlets" : 0,
									"patching_rect" : [ 307.0, 308.0, 86.0, 20.0 ],
									"presentation" : 1,
									"presentation_rect" : [ 282.25, 344.0, 86.0, 20.0 ],
									"text" : "test_read",
									"textjustification" : 2
								}

							}
, 							{
								"box" : 								{
									"fontface" : 1,
									"id" : "obj-52",
									"maxclass" : "comment",
									"numinlets" : 1,
									"numoutlets" : 0,
									"patching_rect" : [ 307.0, 452.0, 86.0, 20.0 ],
									"presentation" : 1,
									"presentation_rect" : [ 278.0, 468.0, 85.5, 20.0 ],
									"text" : "test_api",
									"textjustification" : 2
								}

							}
, 							{
								"box" : 								{
									"fontface" : 1,
									"id" : "obj-51",
									"maxclass" : "comment",
									"numinlets" : 1,
									"numoutlets" : 0,
									"patching_rect" : [ 307.0, 275.0, 86.0, 20.0 ],
									"presentation" : 1,
									"presentation_rect" : [ 278.0, 283.0, 86.0, 20.0 ],
									"text" : "test_assign",
									"textjustification" : 2
								}

							}
, 							{
								"box" : 								{
									"fontface" : 1,
									"id" : "obj-50",
									"maxclass" : "comment",
									"numinlets" : 1,
									"numoutlets" : 0,
									"patching_rect" : [ 307.0, 13.0, 86.0, 20.0 ],
									"presentation" : 1,
									"presentation_rect" : [ 277.0, 13.0, 86.0, 20.0 ],
									"text" : "test_import",
									"textjustification" : 2
								}

							}
, 							{
								"box" : 								{
									"fontface" : 1,
									"id" : "obj-49",
									"maxclass" : "comment",
									"numinlets" : 1,
									"numoutlets" : 0,
									"patching_rect" : [ 307.0, 241.0, 86.0, 20.0 ],
									"presentation" : 1,
									"presentation_rect" : [ 278.0, 250.0, 86.0, 20.0 ],
									"text" : "test_execfile",
									"textjustification" : 2
								}

							}
, 							{
								"box" : 								{
									"fontface" : 1,
									"id" : "obj-48",
									"maxclass" : "comment",
									"numinlets" : 1,
									"numoutlets" : 0,
									"patching_rect" : [ 307.0, 207.0, 86.0, 20.0 ],
									"presentation" : 1,
									"presentation_rect" : [ 278.0, 212.0, 86.0, 20.0 ],
									"text" : "test_exec",
									"textjustification" : 2
								}

							}
, 							{
								"box" : 								{
									"fontface" : 1,
									"id" : "obj-47",
									"maxclass" : "comment",
									"numinlets" : 1,
									"numoutlets" : 0,
									"patching_rect" : [ 307.0, 142.0, 86.0, 20.0 ],
									"presentation" : 1,
									"presentation_rect" : [ 277.0, 79.0, 86.0, 20.0 ],
									"text" : "test_eval",
									"textjustification" : 2
								}

							}
, 							{
								"box" : 								{
									"id" : "obj-36",
									"maxclass" : "message",
									"numinlets" : 2,
									"numoutlets" : 1,
									"outlettype" : [ "" ],
									"patching_rect" : [ 578.0, 273.0, 29.5, 22.0 ],
									"presentation" : 1,
									"presentation_rect" : [ 692.5, 283.0, 54.0, 22.0 ],
									"text" : "xs"
								}

							}
, 							{
								"box" : 								{
									"id" : "obj-35",
									"maxclass" : "message",
									"numinlets" : 2,
									"numoutlets" : 1,
									"outlettype" : [ "" ],
									"patching_rect" : [ 412.0, 273.0, 148.0, 22.0 ],
									"presentation" : 1,
									"presentation_rect" : [ 387.0, 283.0, 156.0, 22.0 ],
									"text" : "assign xs 1 2.1 3 4.5 a b c"
								}

							}
, 							{
								"box" : 								{
									"id" : "obj-30",
									"maxclass" : "message",
									"numinlets" : 2,
									"numoutlets" : 1,
									"outlettype" : [ "" ],
									"patching_rect" : [ 622.0, 414.0, 29.5, 22.0 ],
									"presentation" : 1,
									"presentation_rect" : [ 579.5, 437.0, 29.5, 22.0 ],
									"text" : "bye"
								}

							}
, 							{
								"box" : 								{
									"id" : "obj-22",
									"maxclass" : "newobj",
									"numinlets" : 1,
									"numoutlets" : 1,
									"outlettype" : [ "" ],
									"patching_rect" : [ 622.0, 452.0, 141.0, 22.0 ],
									"presentation" : 1,
									"presentation_rect" : [ 579.5, 468.0, 141.0, 22.0 ],
									"text" : "sprintf eval api.post('%s')"
								}

							}
, 							{
								"box" : 								{
									"id" : "obj-29",
									"maxclass" : "message",
									"numinlets" : 2,
									"numoutlets" : 1,
									"outlettype" : [ "" ],
									"patching_rect" : [ 622.0, 344.0, 29.5, 22.0 ],
									"presentation" : 1,
									"presentation_rect" : [ 487.0, 375.0, 41.0, 22.0 ],
									"text" : "b"
								}

							}
, 							{
								"box" : 								{
									"id" : "obj-17",
									"maxclass" : "message",
									"numinlets" : 2,
									"numoutlets" : 1,
									"outlettype" : [ "" ],
									"patching_rect" : [ 412.0, 308.0, 77.0, 22.0 ],
									"presentation" : 1,
									"presentation_rect" : [ 391.25, 344.0, 77.0, 22.0 ],
									"text" : "read hello.py"
								}

							}
, 							{
								"box" : 								{
									"id" : "obj-24",
									"maxclass" : "message",
									"numinlets" : 2,
									"numoutlets" : 1,
									"outlettype" : [ "" ],
									"patching_rect" : [ 512.0, 308.0, 33.0, 22.0 ],
									"presentation" : 1,
									"presentation_rect" : [ 489.25, 344.0, 33.0, 22.0 ],
									"text" : "read"
								}

							}
, 							{
								"box" : 								{
									"id" : "obj-28",
									"maxclass" : "message",
									"numinlets" : 2,
									"numoutlets" : 1,
									"outlettype" : [ "" ],
									"patching_rect" : [ 412.0, 377.0, 38.0, 22.0 ],
									"presentation" : 1,
									"presentation_rect" : [ 389.0, 407.0, 38.0, 22.0 ],
									"text" : "count"
								}

							}
, 							{
								"box" : 								{
									"id" : "obj-27",
									"maxclass" : "message",
									"numinlets" : 2,
									"numoutlets" : 1,
									"outlettype" : [ "" ],
									"patching_rect" : [ 412.0, 344.0, 76.0, 22.0 ],
									"presentation" : 1,
									"presentation_rect" : [ 389.0, 375.0, 76.0, 22.0 ],
									"text" : "load hello.py"
								}

							}
, 							{
								"box" : 								{
									"id" : "obj-25",
									"maxclass" : "message",
									"numinlets" : 2,
									"numoutlets" : 1,
									"outlettype" : [ "" ],
									"patching_rect" : [ 409.0, 487.0, 88.0, 22.0 ],
									"presentation" : 1,
									"presentation_rect" : [ 387.0, 504.0, 114.0, 22.0 ],
									"text" : "api.post('hello')"
								}

							}
, 							{
								"box" : 								{
									"id" : "obj-11",
									"maxclass" : "message",
									"numinlets" : 2,
									"numoutlets" : 1,
									"outlettype" : [ "" ],
									"patching_rect" : [ 622.0, 487.0, 61.0, 22.0 ],
									"presentation" : 1,
									"presentation_rect" : [ 579.5, 504.0, 87.0, 22.0 ],
									"text" : "api.hello()"
								}

							}
, 							{
								"box" : 								{
									"id" : "obj-23",
									"maxclass" : "message",
									"numinlets" : 2,
									"numoutlets" : 1,
									"outlettype" : [ "" ],
									"patching_rect" : [ 512.0, 487.0, 66.0, 22.0 ],
									"presentation" : 1,
									"presentation_rect" : [ 474.0, 468.0, 66.0, 22.0 ],
									"text" : "eval api.txt"
								}

							}
, 							{
								"box" : 								{
									"id" : "obj-19",
									"maxclass" : "message",
									"numinlets" : 2,
									"numoutlets" : 1,
									"outlettype" : [ "" ],
									"patching_rect" : [ 409.0, 452.0, 61.0, 22.0 ],
									"presentation" : 1,
									"presentation_rect" : [ 387.0, 468.0, 61.0, 22.0 ],
									"text" : "import api"
								}

							}
, 							{
								"box" : 								{
									"id" : "obj-20",
									"maxclass" : "message",
									"numinlets" : 2,
									"numoutlets" : 1,
									"outlettype" : [ "" ],
									"patching_rect" : [ 412.0, 241.0, 94.0, 22.0 ],
									"presentation" : 1,
									"presentation_rect" : [ 387.0, 249.0, 94.0, 22.0 ],
									"text" : "execfile hello.py"
								}

							}
, 							{
								"box" : 								{
									"id" : "obj-18",
									"maxclass" : "message",
									"numinlets" : 2,
									"numoutlets" : 1,
									"outlettype" : [ "" ],
									"patching_rect" : [ 412.0, 207.0, 29.5, 22.0 ],
									"presentation" : 1,
									"presentation_rect" : [ 387.0, 212.0, 57.0, 22.0 ],
									"text" : "x=1"
								}

							}
, 							{
								"box" : 								{
									"id" : "obj-16",
									"maxclass" : "comment",
									"numinlets" : 1,
									"numoutlets" : 0,
									"patching_rect" : [ 525.5, 108.0, 128.0, 20.0 ],
									"presentation" : 1,
									"presentation_rect" : [ 505.5, 111.0, 128.0, 20.0 ],
									"text" : "> 128 (dynamic alloc.)"
								}

							}
, 							{
								"box" : 								{
									"id" : "obj-15",
									"maxclass" : "comment",
									"numinlets" : 1,
									"numoutlets" : 0,
									"patching_rect" : [ 525.5, 76.0, 113.0, 20.0 ],
									"presentation" : 1,
									"presentation_rect" : [ 505.5, 78.0, 113.0, 20.0 ],
									"text" : "< 128 (static alloc.)"
								}

							}
, 							{
								"box" : 								{
									"id" : "obj-2",
									"maxclass" : "message",
									"numinlets" : 2,
									"numoutlets" : 1,
									"outlettype" : [ "" ],
									"patching_rect" : [ 412.0, 108.0, 90.0, 22.0 ],
									"presentation" : 1,
									"presentation_rect" : [ 387.0, 111.0, 115.0, 22.0 ],
									"text" : "list(range(150))"
								}

							}
, 							{
								"box" : 								{
									"id" : "obj-13",
									"maxclass" : "button",
									"numinlets" : 1,
									"numoutlets" : 1,
									"outlettype" : [ "bang" ],
									"parameter_enable" : 0,
									"patching_rect" : [ 412.0, 414.0, 24.0, 24.0 ],
									"presentation" : 1,
									"presentation_rect" : [ 389.0, 437.0, 24.0, 24.0 ]
								}

							}
, 							{
								"box" : 								{
									"id" : "obj-14",
									"maxclass" : "message",
									"numinlets" : 2,
									"numoutlets" : 1,
									"outlettype" : [ "" ],
									"patching_rect" : [ 525.5, 44.0, 159.0, 22.0 ],
									"presentation" : 1,
									"presentation_rect" : [ 485.0, 41.0, 160.0, 22.0 ],
									"text" : "str(datetime.datetime.now())"
								}

							}
, 							{
								"box" : 								{
									"id" : "obj-12",
									"maxclass" : "message",
									"numinlets" : 2,
									"numoutlets" : 1,
									"outlettype" : [ "" ],
									"patching_rect" : [ 412.0, 44.0, 91.0, 22.0 ],
									"presentation" : 1,
									"presentation_rect" : [ 387.0, 41.0, 91.0, 22.0 ],
									"text" : "import datetime"
								}

							}
, 							{
								"box" : 								{
									"id" : "obj-1",
									"maxclass" : "message",
									"numinlets" : 2,
									"numoutlets" : 1,
									"outlettype" : [ "" ],
									"patching_rect" : [ 525.5, 13.0, 89.0, 22.0 ],
									"presentation" : 1,
									"presentation_rect" : [ 476.0, 13.0, 114.0, 22.0 ],
									"text" : "string.hexdigits"
								}

							}
, 							{
								"box" : 								{
									"id" : "obj-10",
									"maxclass" : "message",
									"numinlets" : 2,
									"numoutlets" : 1,
									"outlettype" : [ "" ],
									"patching_rect" : [ 622.0, 142.0, 50.0, 22.0 ],
									"presentation" : 1,
									"presentation_rect" : [ 558.5, 146.0, 76.0, 22.0 ],
									"text" : "str(1+1)"
								}

							}
, 							{
								"box" : 								{
									"id" : "obj-9",
									"maxclass" : "message",
									"numinlets" : 2,
									"numoutlets" : 1,
									"outlettype" : [ "" ],
									"patching_rect" : [ 412.0, 76.0, 77.0, 22.0 ],
									"presentation" : 1,
									"presentation_rect" : [ 387.0, 78.0, 113.0, 22.0 ],
									"text" : "list(range(2))"
								}

							}
, 							{
								"box" : 								{
									"id" : "obj-6",
									"maxclass" : "message",
									"numinlets" : 2,
									"numoutlets" : 1,
									"outlettype" : [ "" ],
									"patching_rect" : [ 412.0, 142.0, 49.0, 22.0 ],
									"presentation" : 1,
									"presentation_rect" : [ 387.0, 146.0, 74.0, 22.0 ],
									"text" : "1.4+2.3"
								}

							}
, 							{
								"box" : 								{
									"id" : "obj-4",
									"maxclass" : "message",
									"numinlets" : 2,
									"numoutlets" : 1,
									"outlettype" : [ "" ],
									"patching_rect" : [ 505.5, 142.0, 29.5, 22.0 ],
									"presentation" : 1,
									"presentation_rect" : [ 480.5, 146.0, 54.0, 22.0 ],
									"text" : "1+1"
								}

							}
, 							{
								"box" : 								{
									"id" : "obj-5",
									"maxclass" : "message",
									"numinlets" : 2,
									"numoutlets" : 1,
									"outlettype" : [ "" ],
									"patching_rect" : [ 627.5, 12.0, 166.0, 22.0 ],
									"presentation" : 1,
									"presentation_rect" : [ 600.0, 12.0, 191.0, 22.0 ],
									"text" : "list(reversed(string.hexdigits))"
								}

							}
, 							{
								"box" : 								{
									"id" : "obj-3",
									"maxclass" : "message",
									"numinlets" : 2,
									"numoutlets" : 1,
									"outlettype" : [ "" ],
									"patching_rect" : [ 412.0, 13.0, 75.0, 22.0 ],
									"presentation" : 1,
									"presentation_rect" : [ 387.0, 13.0, 75.0, 22.0 ],
									"text" : "import string"
								}

							}
 ],
						"lines" : [ 							{
								"patchline" : 								{
									"destination" : [ "obj-7", 0 ],
									"hidden" : 1,
									"source" : [ "obj-1", 0 ]
								}

							}
, 							{
								"patchline" : 								{
									"destination" : [ "obj-7", 0 ],
									"hidden" : 1,
									"source" : [ "obj-10", 0 ]
								}

							}
, 							{
								"patchline" : 								{
									"destination" : [ "obj-7", 0 ],
									"hidden" : 1,
									"source" : [ "obj-11", 0 ]
								}

							}
, 							{
								"patchline" : 								{
									"destination" : [ "obj-7", 0 ],
									"hidden" : 1,
									"source" : [ "obj-12", 0 ]
								}

							}
, 							{
								"patchline" : 								{
									"destination" : [ "obj-7", 0 ],
									"hidden" : 1,
									"source" : [ "obj-13", 0 ]
								}

							}
, 							{
								"patchline" : 								{
									"destination" : [ "obj-7", 0 ],
									"hidden" : 1,
									"source" : [ "obj-14", 0 ]
								}

							}
, 							{
								"patchline" : 								{
									"destination" : [ "obj-7", 0 ],
									"hidden" : 1,
									"source" : [ "obj-17", 0 ]
								}

							}
, 							{
								"patchline" : 								{
									"destination" : [ "obj-7", 0 ],
									"hidden" : 1,
									"source" : [ "obj-18", 0 ]
								}

							}
, 							{
								"patchline" : 								{
									"destination" : [ "obj-7", 0 ],
									"hidden" : 1,
									"source" : [ "obj-19", 0 ]
								}

							}
, 							{
								"patchline" : 								{
									"destination" : [ "obj-7", 0 ],
									"hidden" : 1,
									"source" : [ "obj-2", 0 ]
								}

							}
, 							{
								"patchline" : 								{
									"destination" : [ "obj-7", 0 ],
									"hidden" : 1,
									"source" : [ "obj-20", 0 ]
								}

							}
, 							{
								"patchline" : 								{
									"destination" : [ "obj-7", 0 ],
									"hidden" : 1,
									"source" : [ "obj-22", 0 ]
								}

							}
, 							{
								"patchline" : 								{
									"destination" : [ "obj-7", 0 ],
									"hidden" : 1,
									"source" : [ "obj-23", 0 ]
								}

							}
, 							{
								"patchline" : 								{
									"destination" : [ "obj-7", 0 ],
									"hidden" : 1,
									"source" : [ "obj-24", 0 ]
								}

							}
, 							{
								"patchline" : 								{
									"destination" : [ "obj-7", 0 ],
									"hidden" : 1,
									"source" : [ "obj-25", 0 ]
								}

							}
, 							{
								"patchline" : 								{
									"destination" : [ "obj-7", 0 ],
									"hidden" : 1,
									"source" : [ "obj-26", 0 ]
								}

							}
, 							{
								"patchline" : 								{
									"destination" : [ "obj-7", 0 ],
									"hidden" : 1,
									"source" : [ "obj-27", 0 ]
								}

							}
, 							{
								"patchline" : 								{
									"destination" : [ "obj-7", 0 ],
									"hidden" : 1,
									"source" : [ "obj-28", 0 ]
								}

							}
, 							{
								"patchline" : 								{
									"destination" : [ "obj-7", 0 ],
									"hidden" : 1,
									"source" : [ "obj-29", 0 ]
								}

							}
, 							{
								"patchline" : 								{
									"destination" : [ "obj-7", 0 ],
									"hidden" : 1,
									"source" : [ "obj-3", 0 ]
								}

							}
, 							{
								"patchline" : 								{
									"destination" : [ "obj-22", 0 ],
									"source" : [ "obj-30", 0 ]
								}

							}
, 							{
								"patchline" : 								{
									"destination" : [ "obj-7", 0 ],
									"hidden" : 1,
									"source" : [ "obj-31", 0 ]
								}

							}
, 							{
								"patchline" : 								{
									"destination" : [ "obj-21", 0 ],
									"hidden" : 1,
									"source" : [ "obj-32", 0 ]
								}

							}
, 							{
								"patchline" : 								{
									"destination" : [ "obj-7", 0 ],
									"hidden" : 1,
									"source" : [ "obj-34", 0 ]
								}

							}
, 							{
								"patchline" : 								{
									"destination" : [ "obj-7", 0 ],
									"hidden" : 1,
									"source" : [ "obj-35", 0 ]
								}

							}
, 							{
								"patchline" : 								{
									"destination" : [ "obj-7", 0 ],
									"hidden" : 1,
									"source" : [ "obj-36", 0 ]
								}

							}
, 							{
								"patchline" : 								{
									"destination" : [ "obj-7", 0 ],
									"hidden" : 1,
									"source" : [ "obj-37", 0 ]
								}

							}
, 							{
								"patchline" : 								{
									"destination" : [ "obj-7", 0 ],
									"hidden" : 1,
									"source" : [ "obj-38", 0 ]
								}

							}
, 							{
								"patchline" : 								{
									"destination" : [ "obj-7", 0 ],
									"hidden" : 1,
									"source" : [ "obj-39", 0 ]
								}

							}
, 							{
								"patchline" : 								{
									"destination" : [ "obj-7", 0 ],
									"hidden" : 1,
									"source" : [ "obj-4", 0 ]
								}

							}
, 							{
								"patchline" : 								{
									"destination" : [ "obj-7", 0 ],
									"hidden" : 1,
									"source" : [ "obj-40", 0 ]
								}

							}
, 							{
								"patchline" : 								{
									"destination" : [ "obj-7", 0 ],
									"hidden" : 1,
									"source" : [ "obj-41", 0 ]
								}

							}
, 							{
								"patchline" : 								{
									"destination" : [ "obj-7", 0 ],
									"hidden" : 1,
									"source" : [ "obj-42", 0 ]
								}

							}
, 							{
								"patchline" : 								{
									"destination" : [ "obj-7", 0 ],
									"hidden" : 1,
									"source" : [ "obj-43", 0 ]
								}

							}
, 							{
								"patchline" : 								{
									"destination" : [ "obj-7", 0 ],
									"hidden" : 1,
									"source" : [ "obj-5", 0 ]
								}

							}
, 							{
								"patchline" : 								{
									"destination" : [ "obj-32", 0 ],
									"hidden" : 1,
									"source" : [ "obj-58", 0 ]
								}

							}
, 							{
								"patchline" : 								{
									"destination" : [ "obj-7", 0 ],
									"hidden" : 1,
									"source" : [ "obj-59", 0 ]
								}

							}
, 							{
								"patchline" : 								{
									"destination" : [ "obj-7", 0 ],
									"hidden" : 1,
									"source" : [ "obj-6", 0 ]
								}

							}
, 							{
								"patchline" : 								{
									"destination" : [ "obj-7", 0 ],
									"hidden" : 1,
									"source" : [ "obj-60", 0 ]
								}

							}
, 							{
								"patchline" : 								{
									"destination" : [ "obj-7", 0 ],
									"hidden" : 1,
									"source" : [ "obj-61", 0 ]
								}

							}
, 							{
								"patchline" : 								{
									"destination" : [ "obj-7", 0 ],
									"hidden" : 1,
									"source" : [ "obj-62", 0 ]
								}

							}
, 							{
								"patchline" : 								{
									"destination" : [ "obj-7", 0 ],
									"hidden" : 1,
									"source" : [ "obj-63", 0 ]
								}

							}
, 							{
								"patchline" : 								{
									"destination" : [ "obj-7", 0 ],
									"hidden" : 1,
									"source" : [ "obj-64", 0 ]
								}

							}
, 							{
								"patchline" : 								{
									"destination" : [ "obj-7", 0 ],
									"hidden" : 1,
									"source" : [ "obj-65", 0 ]
								}

							}
, 							{
								"patchline" : 								{
									"destination" : [ "obj-7", 0 ],
									"hidden" : 1,
									"source" : [ "obj-66", 0 ]
								}

							}
, 							{
								"patchline" : 								{
									"destination" : [ "obj-7", 0 ],
									"hidden" : 1,
									"source" : [ "obj-67", 0 ]
								}

							}
, 							{
								"patchline" : 								{
									"destination" : [ "obj-7", 0 ],
									"hidden" : 1,
									"source" : [ "obj-68", 0 ]
								}

							}
, 							{
								"patchline" : 								{
									"destination" : [ "obj-7", 0 ],
									"hidden" : 1,
									"source" : [ "obj-69", 0 ]
								}

							}
, 							{
								"patchline" : 								{
									"destination" : [ "obj-21", 1 ],
									"source" : [ "obj-7", 0 ]
								}

							}
, 							{
								"patchline" : 								{
									"destination" : [ "obj-45", 0 ],
									"source" : [ "obj-7", 1 ]
								}

							}
, 							{
								"patchline" : 								{
									"destination" : [ "obj-46", 0 ],
									"source" : [ "obj-7", 2 ]
								}

							}
, 							{
								"patchline" : 								{
									"destination" : [ "obj-7", 0 ],
									"hidden" : 1,
									"source" : [ "obj-70", 0 ]
								}

							}
, 							{
								"patchline" : 								{
									"destination" : [ "obj-7", 0 ],
									"hidden" : 1,
									"source" : [ "obj-72", 0 ]
								}

							}
, 							{
								"patchline" : 								{
									"destination" : [ "obj-7", 0 ],
									"hidden" : 1,
									"source" : [ "obj-73", 0 ]
								}

							}
, 							{
								"patchline" : 								{
									"destination" : [ "obj-7", 0 ],
									"hidden" : 1,
									"source" : [ "obj-74", 0 ]
								}

							}
, 							{
								"patchline" : 								{
									"destination" : [ "obj-7", 0 ],
									"hidden" : 1,
									"source" : [ "obj-76", 0 ]
								}

							}
, 							{
								"patchline" : 								{
									"destination" : [ "obj-7", 0 ],
									"hidden" : 1,
									"source" : [ "obj-77", 0 ]
								}

							}
, 							{
								"patchline" : 								{
									"destination" : [ "obj-7", 0 ],
									"hidden" : 1,
									"source" : [ "obj-78", 0 ]
								}

							}
, 							{
								"patchline" : 								{
									"destination" : [ "obj-7", 0 ],
									"hidden" : 1,
									"source" : [ "obj-79", 0 ]
								}

							}
, 							{
								"patchline" : 								{
									"destination" : [ "obj-32", 0 ],
									"hidden" : 1,
									"source" : [ "obj-8", 0 ]
								}

							}
, 							{
								"patchline" : 								{
									"destination" : [ "obj-7", 0 ],
									"source" : [ "obj-86", 0 ]
								}

							}
, 							{
								"patchline" : 								{
									"destination" : [ "obj-7", 0 ],
									"hidden" : 1,
									"source" : [ "obj-87", 0 ]
								}

							}
, 							{
								"patchline" : 								{
									"destination" : [ "obj-7", 0 ],
									"hidden" : 1,
									"source" : [ "obj-9", 0 ]
								}

							}
 ]
					}
,
					"patching_rect" : [ 16.0, 53.0, 66.0, 22.0 ],
					"saved_object_attributes" : 					{
						"description" : "",
						"digest" : "",
						"globalpatchername" : "",
						"tags" : ""
					}
,
					"text" : "p overview"
				}

			}
 ],
		"lines" : [  ],
		"dependency_cache" : [ 			{
				"name" : "py.mxo",
				"type" : "iLaX"
			}
, 			{
				"name" : "py_repl.maxpat",
				"bootpath" : "~/Downloads/projects/py-js/patchers",
				"patcherrelativepath" : ".",
				"type" : "JSON",
				"implicit" : 1
			}
 ],
		"autosave" : 0
	}

}
